<?xml version="1.0" encoding="UTF-8" standalone="no"?>
<!-- Created with Inkscape (http://www.inkscape.org/) -->

<svg
   xmlns:dc="http://purl.org/dc/elements/1.1/"
   xmlns:cc="http://creativecommons.org/ns#"
   xmlns:rdf="http://www.w3.org/1999/02/22-rdf-syntax-ns#"
   xmlns:svg="http://www.w3.org/2000/svg"
   xmlns="http://www.w3.org/2000/svg"
   xmlns:sodipodi="http://sodipodi.sourceforge.net/DTD/sodipodi-0.dtd"
   xmlns:inkscape="http://www.inkscape.org/namespaces/inkscape"
   width="210mm"
   height="297mm"
   viewBox="0 0 210 297"
   version="1.1"
   id="svg278"
   inkscape:version="0.92.4 (unknown)"
   sodipodi:docname="bear2.svg">
  <defs
     id="defs272" />
  <sodipodi:namedview
     id="base"
     pagecolor="#ffffff"
     bordercolor="#666666"
     borderopacity="1.0"
     inkscape:pageopacity="0.0"
     inkscape:pageshadow="2"
     inkscape:zoom="0.35"
     inkscape:cx="-120"
     inkscape:cy="560"
     inkscape:document-units="mm"
     inkscape:current-layer="layer1"
     showgrid="false"
     inkscape:window-width="1920"
     inkscape:window-height="1136"
     inkscape:window-x="0"
     inkscape:window-y="27"
     inkscape:window-maximized="1" />
  <metadata
     id="metadata275">
    <rdf:RDF>
      <cc:Work
         rdf:about="">
        <dc:format>image/svg+xml</dc:format>
        <dc:type
           rdf:resource="http://purl.org/dc/dcmitype/StillImage" />
        <dc:title></dc:title>
      </cc:Work>
    </rdf:RDF>
  </metadata>
  <g
     inkscape:label="Vrstva 1"
     inkscape:groupmode="layer"
     id="layer1">
    <path
       style="opacity:1;fill:#000000;fill-opacity:1;stroke:#ffffff;stroke-width:0.24722537;stroke-opacity:1"
       d="m 84.767211,165.16899 c -2.981825,-1.22266 -5.521137,-4.27781 -6.706876,-8.06931 -0.195013,-0.62358 -0.422677,-2.0996 -0.505917,-3.28006 -0.228344,-3.23813 0.361733,-5.74078 2.528019,-10.72196 1.839926,-4.23074 2.207565,-6.50221 1.489163,-9.20088 -0.190656,-0.7162 -1.349166,-3.38623 -2.574465,-5.9334 -3.202006,-6.65639 -3.878709,-9.30448 -3.270385,-12.79775 0.379545,-2.17949 1.122593,-3.97866 3.237661,-7.83944 3.211002,-5.86126 3.57245,-7.994088 2.063732,-12.177728 -2.123948,-5.88964 -2.368169,-6.71125 -2.495558,-8.39566 -0.406162,-5.37039 2.509938,-9.2335 7.776435,-10.30185 2.700015,-0.54772 5.539118,0.14398 10.007245,2.43812 2.098863,1.07765 2.443859,1.17841 4.026145,1.17586 1.6242,-0.003 1.94333,-0.10476 5.19173,-1.6616 3.97218,-1.90372 5.42007,-2.28279 8.02546,-2.10115 6.16436,0.42975 9.85239,5.47227 8.59339,11.74941 -0.22155,1.10459 -0.90666,3.29691 -1.52246,4.87181 -2.44516,6.25352 -2.25056,7.541118 2.42388,16.038018 2.14606,3.90096 2.81832,6.69641 2.37423,9.87263 -0.35824,2.56219 -1.03199,4.43282 -3.37355,9.36642 -2.55074,5.37434 -3.05262,7.29306 -2.55928,9.7843 0.18126,0.91535 1.02813,3.28967 1.88192,5.27629 1.85606,4.31871 2.29537,5.8452 2.48243,8.62563 0.44796,6.65889 -3.9794,13.36408 -8.81139,13.34474 -1.60762,-0.006 -2.50829,-0.38498 -6.14838,-2.58411 -6.8909,-4.16309 -9.86066,-4.11303 -16.675639,0.2811 -3.698533,2.38473 -5.665046,2.97555 -7.45754,2.24057 z m 4.783288,-4.11578 c 3.171793,-1.61813 4.790371,-6.45338 3.539167,-10.5727 -1.013539,-3.33686 -2.907395,-5.07144 -5.699265,-5.21998 -1.357238,-0.0722 -1.822886,0.0136 -2.746804,0.50628 -1.325665,0.70689 -2.690045,2.42081 -3.348693,4.2066 -0.67736,1.83653 -0.630108,5.24294 0.09883,7.12463 1.500687,3.87388 4.994929,5.56822 8.156768,3.95517 z m 27.163731,-0.15488 c 4.28451,-2.13506 5.31564,-9.67821 1.87282,-13.70038 -0.99388,-1.16112 -2.97918,-2.22734 -4.15442,-2.23116 -4.8986,-0.0159 -8.00771,6.47682 -5.82594,12.16626 0.60725,1.58353 2.24119,3.43663 3.52431,3.99701 1.32845,0.58019 3.13748,0.48872 4.58323,-0.23173 z M 88.326206,125.94117 c 1.289278,-0.65774 2.623928,-2.26681 3.27564,-3.94914 0.704537,-1.8187 0.754324,-5.26128 0.102179,-7.06554 -0.61626,-1.70497 -1.631905,-3.1062 -2.876748,-3.96888 -0.942711,-0.6533 -1.248622,-0.7284 -2.966924,-0.7284 -1.7326,0 -2.018366,0.0717 -2.987842,0.74951 -1.235702,0.86395 -2.533142,2.67063 -2.98464,4.1561 -0.171815,0.56529 -0.309269,2.08469 -0.305451,3.37644 0.006,2.03781 0.09777,2.54496 0.693253,3.83199 1.722737,3.72341 4.964597,5.17225 8.050533,3.59792 z m 29.617114,-0.25976 c 1.4096,-0.80843 2.45091,-2.14036 3.18964,-4.07983 0.69423,-1.82264 0.62816,-5.19885 -0.14015,-7.16188 -1.00785,-2.57504 -3.51912,-4.5851 -5.72195,-4.57995 -3.17146,0.007 -6.01601,3.37574 -6.32626,7.49113 -0.4772,6.32977 4.48215,10.92088 8.99872,8.33053 z m -14.20266,-18.68294 c 1.39154,-0.47414 3.10846,-1.9171 3.55623,-2.98875 0.44402,-1.0627 0.43156,-2.89637 -0.0257,-3.7806 -0.54711,-1.057978 -2.26615,-2.413068 -3.68785,-2.907058 -2.0171,-0.70086 -4.862132,-0.59056 -6.70137,0.2598 -1.74467,0.80665 -2.473193,1.43497 -3.115106,2.686678 -1.909551,3.72356 2.054862,7.62302 7.344926,7.2246 0.8311,-0.0626 2.01408,-0.28519 2.62886,-0.49467 z M 92.701128,96.145222 c 0.889389,-0.58275 1.365967,-1.46563 1.381051,-2.55846 0.03552,-2.57364 -2.670939,-4.10532 -4.762942,-2.69551 -1.007758,0.67912 -1.453491,1.48983 -1.457139,2.65025 -0.0078,2.46482 2.769976,3.95942 4.83903,2.60372 z m 18.898132,-0.012 c 1.37657,-0.71185 1.91561,-2.88246 1.07091,-4.31241 -1.42674,-2.41527 -5.55132,-1.70438 -5.78011,0.99623 -0.1277,1.50733 0.0285,2.03479 0.84439,2.85064 0.7149,0.7149 1.01242,0.84056 1.99008,0.84056 0.63223,0 1.47586,-0.16876 1.87473,-0.37502 z"
       id="path261"
       inkscape:connector-curvature="0" />
  </g>
</svg>
