999
Inkscape export via OpenSCAD DXF Export
  0
SECTION
  2
HEADER
  9
$ACADVER
  1
AC1014
  9
$HANDSEED
  5
FFFF
  9
$MEASUREMENT
 70
     1
  0
ENDSEC
  0
SECTION
  2
TABLES
  0
TABLE
  2
VPORT
  5
8
330
0
100
AcDbSymbolTable
 70
     4
  0
VPORT
  5
2E
330
8
100
AcDbSymbolTableRecord
100
AcDbViewportTableRecord
  2
*ACTIVE
 70
     0
 10
0.0
 20
0.0
 11
1.0
 21
1.0
 12
210.0
 22
148.5
 13
0.0
 23
0.0
 14
10.0
 24
10.0
 15
10.0
 25
10.0
 16
0.0
 26
0.0
 36
1.0
 17
0.0
 27
0.0
 37
0.0
 40
341.0
 41
1.24
 42
50.0
 43
0.0
 44
0.0
 50
0.0
 51
0.0
 71
     0
 72
   100
 73
     1
 74
     3
 75
     0
 76
     0
 77
     0
 78
     0
  0
ENDTAB
  0
TABLE
  2
LTYPE
  5
5
330
0
100
AcDbSymbolTable
 70
     1
  0
LTYPE
  5
14
330
5
100
AcDbSymbolTableRecord
100
AcDbLinetypeTableRecord
  2
BYBLOCK
 70
     0
  3

 72
    65
 73
     0
 40
0.0
  0
LTYPE
  5
15
330
5
100
AcDbSymbolTableRecord
100
AcDbLinetypeTableRecord
  2
BYLAYER
 70
     0
  3

 72
    65
 73
     0
 40
0.0
  0
LTYPE
  5
16
330
5
100
AcDbSymbolTableRecord
100
AcDbLinetypeTableRecord
  2
CONTINUOUS
 70
     0
  3
Solid line
 72
    65
 73
     0
 40
0.0
  0
ENDTAB
  0
TABLE
0
TABLE
2
LAYER
5
2
330
0
100
AcDbSymbolTable
70
1
0
LAYER
5
10
330
2
100
AcDbSymbolTableRecord
100
AcDbLayerTableRecord
2
Layer_1
70
0
62
7
6
CONTINUOUS
0
ENDTAB
0
ENDSEC
  0
ENDTAB
  0
TABLE
  2
STYLE
  5
3
330
0
100
AcDbSymbolTable
 70
     1
  0
STYLE
  5
11
330
3
100
AcDbSymbolTableRecord
100
AcDbTextStyleTableRecord
  2
STANDARD
 70
     0
 40
0.0
 41
1.0
 50
0.0
 71
     0
 42
2.5
  3
txt
  4

  0
ENDTAB
  0
TABLE
  2
VIEW
  5
6
330
0
100
AcDbSymbolTable
 70
     0
  0
ENDTAB
  0
TABLE
  2
UCS
  5
7
330
0
100
AcDbSymbolTable
 70
     0
  0
ENDTAB
  0
TABLE
  2
APPID
  5
9
330
0
100
AcDbSymbolTable
 70
     2
  0
APPID
  5
12
330
9
100
AcDbSymbolTableRecord
100
AcDbRegAppTableRecord
  2
ACAD
 70
     0
  0
ENDTAB
  0
TABLE
  2
DIMSTYLE
  5
A
330
0
100
AcDbSymbolTable
 70
     1
  0
DIMSTYLE
105
27
330
A
100
AcDbSymbolTableRecord
100
AcDbDimStyleTableRecord
  2
ISO-25
 70
     0
  3

  4

  5

  6

  7

 40
1.0
 41
2.5
 42
0.625
 43
3.75
 44
1.25
 45
0.0
 46
0.0
 47
0.0
 48
0.0
140
2.5
141
2.5
142
0.0
143
0.03937007874016
144
1.0
145
0.0
146
1.0
147
0.625
 71
     0
 72
     0
 73
     0
 74
     0
 75
     0
 76
     0
 77
     1
 78
     8
170
     0
171
     3
172
     1
173
     0
174
     0
175
     0
176
     0
177
     0
178
     0
270
     2
271
     2
272
     2
273
     2
274
     3
340
11
275
     0
280
     0
281
     0
282
     0
283
     0
284
     8
285
     0
286
     0
287
     3
288
     0
  0
ENDTAB
  0
TABLE
  2
BLOCK_RECORD
  5
1
330
0
100
AcDbSymbolTable
 70
     1
  0
BLOCK_RECORD
  5
1F
330
1
100
AcDbSymbolTableRecord
100
AcDbBlockTableRecord
  2
*MODEL_SPACE
  0
BLOCK_RECORD
  5
1B
330
1
100
AcDbSymbolTableRecord
100
AcDbBlockTableRecord
  2
*PAPER_SPACE
  0
ENDTAB
  0
ENDSEC
  0
SECTION
  2
BLOCKS
  0
BLOCK
  5
20
330
1F
100
AcDbEntity
  8
0
100
AcDbBlockBegin
  2
*MODEL_SPACE
 70
     0
 10
0.0
 20
0.0
 30
0.0
  3
*MODEL_SPACE
  1

  0
ENDBLK
  5
21
330
1F
100
AcDbEntity
  8
0
100
AcDbBlockEnd
  0
BLOCK
  5
1C
330
1B
100
AcDbEntity
 67
     1
  8
0
100
AcDbBlockBegin
  2
*PAPER_SPACE
  1

  0
ENDBLK
  5
1D
330
1B
100
AcDbEntity
 67
     1
  8
0
100
AcDbBlockEnd
  0
ENDSEC
  0
SECTION
  2
ENTITIES
0
DIMENSION
5
83
100
AcDbEntity
62
256
370
-1
6
ByLayer
1
total_width
3
Standard
70
0
71
5
72
1
41
1.0
100
AcDbAlignedDimension
13
58.709278
23
0.000000
33
0.0
14
112.970451
24
0.000000
34
0.0
50
0.000000
100
AcDbRotatedDimension
0
DIMENSION
5
83
100
AcDbEntity
62
256
370
-1
6
ByLayer
1
total_minx
3
Standard
70
0
71
5
72
1
41
1.0
100
AcDbAlignedDimension
13
58.709278
23
0.000000
33
0.0
14
0.000000
24
0.000000
34
0.0
50
0.000000
100
AcDbRotatedDimension
0
DIMENSION
5
83
100
AcDbEntity
62
256
370
-1
6
ByLayer
1
total_maxx
3
Standard
70
0
71
5
72
1
41
1.0
100
AcDbAlignedDimension
13
0.000000
23
0.000000
33
0.0
14
112.970451
24
0.000000
34
0.0
50
0.000000
100
AcDbRotatedDimension
0
DIMENSION
5
83
100
AcDbEntity
62
256
370
-1
6
ByLayer
1
total_height
3
Standard
70
0
71
5
72
1
41
1.0
100
AcDbAlignedDimension
13
0.000000
23
77.473669
33
0.0
14
0.000000
24
173.505989
34
0.0
50
90.000000
100
AcDbRotatedDimension
0
DIMENSION
5
83
100
AcDbEntity
62
256
370
-1
6
ByLayer
1
total_miny
3
Standard
70
0
71
5
72
1
41
1.0
100
AcDbAlignedDimension
13
77.473669
23
0.000000
33
0.0
14
0.000000
24
0.000000
34
0.0
50
0.000000
100
AcDbRotatedDimension
0
DIMENSION
5
83
100
AcDbEntity
62
256
370
-1
6
ByLayer
1
total_maxy
3
Standard
70
0
71
5
72
1
41
1.0
100
AcDbAlignedDimension
13
0.000000
23
0.000000
33
0.0
14
173.505989
24
0.000000
34
0.0
50
0.000000
100
AcDbRotatedDimension
0
DIMENSION
8
Layer_1
5
83
100
AcDbEntity
62
256
370
-1
6
ByLayer
1
Layer_1_width
3
Standard
70
0
71
5
72
1
41
1.0
100
AcDbAlignedDimension
13
58.709278
23
0.000000
33
0.0
14
112.970451
24
0.000000
34
0.0
50
0.000000
100
AcDbRotatedDimension
0
DIMENSION
8
Layer_1
5
83
100
AcDbEntity
62
256
370
-1
6
ByLayer
1
Layer_1_minx
3
Standard
70
0
71
5
72
1
41
1.0
100
AcDbAlignedDimension
13
58.709278
23
0.000000
33
0.0
14
0.000000
24
0.000000
34
0.0
50
0.000000
100
AcDbRotatedDimension
0
DIMENSION
8
Layer_1
5
83
100
AcDbEntity
62
256
370
-1
6
ByLayer
1
Layer_1_maxx
3
Standard
70
0
71
5
72
1
41
1.0
100
AcDbAlignedDimension
13
0.000000
23
0.000000
33
0.0
14
112.970451
24
0.000000
34
0.0
50
0.000000
100
AcDbRotatedDimension
0
DIMENSION
8
Layer_1
5
83
100
AcDbEntity
62
256
370
-1
6
ByLayer
1
Layer_1_height
3
Standard
70
0
71
5
72
1
41
1.0
100
AcDbAlignedDimension
13
0.000000
23
77.473669
33
0.0
14
0.000000
24
173.505989
34
0.0
50
90.000000
100
AcDbRotatedDimension
0
DIMENSION
8
Layer_1
5
83
100
AcDbEntity
62
256
370
-1
6
ByLayer
1
Layer_1_miny
3
Standard
70
0
71
5
72
1
41
1.0
100
AcDbAlignedDimension
13
77.473669
23
0.000000
33
0.0
14
0.000000
24
0.000000
34
0.0
50
0.000000
100
AcDbRotatedDimension
0
DIMENSION
8
Layer_1
5
83
100
AcDbEntity
62
256
370
-1
6
ByLayer
1
Layer_1_maxy
3
Standard
70
0
71
5
72
1
41
1.0
100
AcDbAlignedDimension
13
0.000000
23
0.000000
33
0.0
14
173.505989
24
0.000000
34
0.0
50
0.000000
100
AcDbRotatedDimension
62
0
0
LWPOLYLINE
100
AcDbPolyline
8
Layer_1
90
61
70
0
10
86.021333
20
83.920189
30
0.0
10
84.555189
20
83.744647
30
0.0
10
82.808798
20
83.230156
30
0.0
10
80.898153
20
82.415662
30
0.0
10
78.959004
20
81.372569
30
0.0
10
77.091822
20
80.208402
30
0.0
10
75.324829
20
79.070482
30
0.0
10
73.618796
20
78.128424
30
0.0
10
71.905707
20
77.550151
30
0.0
10
70.128271
20
77.473669
30
0.0
10
68.277458
20
77.981951
30
0.0
10
66.408300
20
79.095318
30
0.0
10
64.621833
20
80.778209
30
0.0
10
63.043929
20
82.954989
30
0.0
10
61.804127
20
85.523211
30
0.0
10
61.013340
20
88.366882
30
0.0
10
60.744382
20
91.366622
30
0.0
10
61.016162
20
94.411236
30
0.0
10
61.776187
20
97.402791
30
0.0
10
62.883909
20
100.267064
30
0.0
10
64.094360
20
102.961440
30
0.0
10
65.074236
20
105.482813
30
0.0
10
65.572640
20
107.863922
30
0.0
10
65.507164
20
110.160929
30
0.0
10
64.921836
20
112.436769
30
0.0
10
63.944500
20
114.749016
30
0.0
10
62.742798
20
117.133229
30
0.0
10
61.488602
20
119.595900
30
0.0
10
60.339393
20
122.118120
30
0.0
10
59.430920
20
124.664611
30
0.0
10
58.866758
20
127.194733
30
0.0
10
58.709278
20
129.670104
30
0.0
10
58.969487
20
132.065607
30
0.0
10
59.608156
20
134.371927
30
0.0
10
60.543722
20
136.592733
30
0.0
10
61.663862
20
138.738469
30
0.0
10
62.839600
20
140.821551
30
0.0
10
63.935469
20
142.849600
30
0.0
10
64.825316
20
144.825438
30
0.0
10
65.402460
20
146.750193
30
0.0
10
65.599169
20
148.632333
30
0.0
10
65.401331
20
150.493307
30
0.0
10
64.859182
20
152.374882
30
0.0
10
64.085611
20
154.332093
30
0.0
10
63.232736
20
156.416587
30
0.0
10
62.469889
20
158.657996
30
0.0
10
61.959631
20
161.046442
30
0.0
10
61.837429
20
163.517862
30
0.0
10
62.199802
20
165.963318
30
0.0
10
63.099809
20
168.249600
30
0.0
10
64.538013
20
170.237573
30
0.0
10
66.461076
20
171.807011
30
0.0
10
68.755542
20
172.871271
30
0.0
10
71.266191
20
173.391971
30
0.0
10
73.823971
20
173.379836
30
0.0
10
76.276764
20
172.899776
30
0.0
10
78.519867
20
172.073711
30
0.0
10
80.523927
20
171.081700
30
0.0
10
82.332407
20
170.141336
30
0.0
10
84.026022
20
169.467671
30
0.0
10
85.683513
20
169.222420
30
0.0
62
0
0
LWPOLYLINE
100
AcDbPolyline
8
Layer_1
90
61
70
0
10
86.021333
20
83.920189
30
0.0
10
87.488889
20
83.756218
30
0.0
10
89.239513
20
83.255838
30
0.0
10
91.156367
20
82.456302
30
0.0
10
93.103982
20
81.428449
30
0.0
10
94.980196
20
80.279240
30
0.0
10
96.756220
20
79.155713
30
0.0
10
98.469591
20
78.226920
30
0.0
10
100.187196
20
77.662476
30
0.0
10
101.965196
20
77.599540
30
0.0
10
103.811776
20
78.123062
30
0.0
10
105.672184
20
79.250822
30
0.0
10
107.445387
20
80.948107
30
0.0
10
109.006076
20
83.137304
30
0.0
10
110.225276
20
85.715122
30
0.0
10
110.993767
20
88.564720
30
0.0
10
111.239018
20
91.567000
30
0.0
10
110.942967
20
94.609073
30
0.0
10
110.159236
20
97.594420
30
0.0
10
109.028653
20
100.449944
30
0.0
10
107.796753
20
103.134442
30
0.0
10
106.797404
20
105.648196
30
0.0
10
106.279809
20
108.024789
30
0.0
10
106.327222
20
110.322360
30
0.0
10
106.894771
20
112.602998
30
0.0
10
107.853480
20
114.922864
30
0.0
10
109.036273
20
117.316673
30
0.0
10
110.270996
20
119.789504
30
0.0
10
111.399884
20
122.320473
30
0.0
10
112.288038
20
124.874302
30
0.0
10
112.831880
20
127.408658
30
0.0
10
112.970451
20
129.885158
30
0.0
10
112.690769
20
132.278402
30
0.0
10
112.033756
20
134.579642
30
0.0
10
111.080691
20
136.793111
30
0.0
10
109.943618
20
138.930098
30
0.0
10
108.751793
20
141.003584
30
0.0
10
107.638991
20
143.022884
30
0.0
10
106.733904
20
144.991384
30
0.0
10
106.141802
20
146.911907
30
0.0
10
105.930136
20
148.792353
30
0.0
10
106.113298
20
150.654738
30
0.0
10
106.640207
20
152.540547
30
0.0
10
107.397973
20
154.503967
30
0.0
10
108.234198
20
156.595233
30
0.0
10
108.979547
20
158.842569
30
0.0
10
109.471178
20
161.234684
30
0.0
10
109.573624
20
163.706951
30
0.0
10
109.191778
20
166.149584
30
0.0
10
108.273991
20
168.428529
30
0.0
10
106.819982
20
170.405496
30
0.0
10
104.884502
20
171.959129
30
0.0
10
102.581569
20
173.005327
30
0.0
10
100.066969
20
173.505989
30
0.0
10
97.509471
20
173.473533
30
0.0
10
95.060911
20
172.974282
30
0.0
10
92.824018
20
172.130438
30
0.0
10
90.828142
20
171.122058
30
0.0
10
89.027282
20
170.167864
30
0.0
10
87.338747
20
169.480936
30
0.0
10
85.683513
20
169.222420
30
0.0
62
0
0
LWPOLYLINE
100
AcDbPolyline
8
Layer_1
90
20
70
0
10
72.627349
20
154.635482
30
0.0
10
72.862996
20
153.468290
30
0.0
10
73.505624
20
152.515147
30
0.0
10
74.458768
20
151.872518
30
0.0
10
75.625960
20
151.636871
30
0.0
10
76.793108
20
151.872518
30
0.0
10
77.746154
20
152.515147
30
0.0
10
78.388686
20
153.468290
30
0.0
10
78.624289
20
154.635482
30
0.0
10
78.388686
20
155.802630
30
0.0
10
77.746154
20
156.755677
30
0.0
10
76.793108
20
157.398208
30
0.0
10
75.625960
20
157.633811
30
0.0
10
74.458768
20
157.398169
30
0.0
10
73.505624
20
156.755571
30
0.0
10
72.862996
20
155.802511
30
0.0
10
72.627349
20
154.635482
30
0.0
10
72.627349
20
154.635482
30
0.0
10
72.627349
20
154.635482
30
0.0
10
72.627349
20
154.635482
30
0.0
62
0
0
LWPOLYLINE
100
AcDbPolyline
8
Layer_1
90
34
70
0
10
93.112167
20
145.419516
30
0.0
10
92.958929
20
146.496669
30
0.0
10
92.527614
20
147.498783
30
0.0
10
91.847802
20
148.404477
30
0.0
10
90.949074
20
149.192368
30
0.0
10
89.861011
20
149.841075
30
0.0
10
88.613192
20
150.329216
30
0.0
10
87.235198
20
150.635411
30
0.0
10
85.756609
20
150.738276
30
0.0
10
84.278785
20
150.623768
30
0.0
10
82.903183
20
150.306718
30
0.0
10
81.659212
20
149.808740
30
0.0
10
80.576279
20
149.151446
30
0.0
10
79.683793
20
148.356450
30
0.0
10
79.011163
20
147.445364
30
0.0
10
78.587796
20
146.439802
30
0.0
10
78.443102
20
145.361378
30
0.0
10
78.596340
20
144.284224
30
0.0
10
79.027655
20
143.282110
30
0.0
10
79.707467
20
142.376416
30
0.0
10
80.606194
20
141.588525
30
0.0
10
81.694258
20
140.939818
30
0.0
10
82.942077
20
140.451677
30
0.0
10
84.320071
20
140.145483
30
0.0
10
85.798660
20
140.042618
30
0.0
10
87.276472
20
140.157230
30
0.0
10
88.652046
20
140.474374
30
0.0
10
89.895983
20
140.972426
30
0.0
10
90.978884
20
141.629765
30
0.0
10
91.871352
20
142.424766
30
0.0
10
92.543987
20
143.335807
30
0.0
10
92.967392
20
144.341265
30
0.0
10
93.112167
20
145.419516
30
0.0
10
93.112167
20
145.419516
30
0.0
62
0
0
LWPOLYLINE
100
AcDbPolyline
8
Layer_1
90
20
70
0
10
92.857602
20
154.715633
30
0.0
10
93.093289
20
153.548442
30
0.0
10
93.735984
20
152.595298
30
0.0
10
94.689141
20
151.952669
30
0.0
10
95.856213
20
151.717022
30
0.0
10
97.023286
20
151.952669
30
0.0
10
97.976443
20
152.595298
30
0.0
10
98.619138
20
153.548442
30
0.0
10
98.854824
20
154.715633
30
0.0
10
98.619138
20
155.882781
30
0.0
10
97.976443
20
156.835828
30
0.0
10
97.023286
20
157.478360
30
0.0
10
95.856213
20
157.713962
30
0.0
10
94.689141
20
157.478360
30
0.0
10
93.735984
20
156.835828
30
0.0
10
93.093289
20
155.882781
30
0.0
10
92.857602
20
154.715633
30
0.0
10
92.857602
20
154.715633
30
0.0
10
92.857602
20
154.715633
30
0.0
10
92.857602
20
154.715633
30
0.0
62
0
0
LWPOLYLINE
100
AcDbPolyline
8
Layer_1
90
34
70
0
10
70.145487
20
119.749147
30
0.0
10
71.443621
20
119.920897
30
0.0
10
72.652700
20
120.413485
30
0.0
10
73.746825
20
121.192913
30
0.0
10
74.700095
20
122.225188
30
0.0
10
75.486611
20
123.476313
30
0.0
10
76.080474
20
124.912292
30
0.0
10
76.455785
20
126.499130
30
0.0
10
76.586644
20
128.202831
30
0.0
10
76.455785
20
129.906638
30
0.0
10
76.080474
20
131.493578
30
0.0
10
75.486611
20
132.929652
30
0.0
10
74.700095
20
134.180862
30
0.0
10
73.746825
20
135.213209
30
0.0
10
72.652700
20
135.992694
30
0.0
10
71.443621
20
136.485317
30
0.0
10
70.145487
20
136.657080
30
0.0
10
68.847433
20
136.485328
30
0.0
10
67.638392
20
135.992733
30
0.0
10
66.544273
20
135.213283
30
0.0
10
65.590984
20
134.180968
30
0.0
10
64.804437
20
132.929776
30
0.0
10
64.210539
20
131.493697
30
0.0
10
63.835200
20
129.906719
30
0.0
10
63.704329
20
128.202831
30
0.0
10
63.835200
20
126.499130
30
0.0
10
64.210539
20
124.912292
30
0.0
10
64.804437
20
123.476313
30
0.0
10
65.590984
20
122.225188
30
0.0
10
66.544273
20
121.192913
30
0.0
10
67.638392
20
120.413485
30
0.0
10
68.847433
20
119.920897
30
0.0
10
70.145487
20
119.749147
30
0.0
10
70.145487
20
119.749147
30
0.0
62
0
0
LWPOLYLINE
100
AcDbPolyline
8
Layer_1
90
34
70
0
10
101.612700
20
119.873607
30
0.0
10
102.909384
20
120.055655
30
0.0
10
104.114499
20
120.557832
30
0.0
10
105.202410
20
121.345939
30
0.0
10
106.147482
20
122.385773
30
0.0
10
106.924081
20
123.643134
30
0.0
10
107.506572
20
125.083821
30
0.0
10
107.869319
20
126.673635
30
0.0
10
107.986689
20
128.378373
30
0.0
10
107.842340
20
130.081037
30
0.0
10
107.454466
20
131.664900
30
0.0
10
106.849230
20
133.096170
30
0.0
10
106.052796
20
134.341059
30
0.0
10
105.091329
20
135.365774
30
0.0
10
103.990991
20
136.136526
30
0.0
10
102.777948
20
136.619523
30
0.0
10
101.478362
20
136.780976
30
0.0
10
100.181691
20
136.599009
30
0.0
10
98.976608
20
136.096873
30
0.0
10
97.888742
20
135.308783
30
0.0
10
96.943721
20
134.268951
30
0.0
10
96.167174
20
133.011592
30
0.0
10
95.584729
20
131.570920
30
0.0
10
95.222013
20
129.981148
30
0.0
10
95.104656
20
128.276491
30
0.0
10
95.249096
20
126.573746
30
0.0
10
95.637033
20
124.989841
30
0.0
10
96.242298
20
123.558555
30
0.0
10
97.038724
20
122.313665
30
0.0
10
98.000145
20
121.288947
30
0.0
10
99.100393
20
120.518180
30
0.0
10
100.313300
20
120.035141
30
0.0
10
101.612700
20
119.873607
30
0.0
10
101.612700
20
119.873607
30
0.0
62
0
0
LWPOLYLINE
100
AcDbPolyline
8
Layer_1
90
34
70
0
10
71.528940
20
82.310111
30
0.0
10
72.826994
20
82.481862
30
0.0
10
74.036035
20
82.974453
30
0.0
10
75.130154
20
83.753893
30
0.0
10
76.083442
20
84.786188
30
0.0
10
76.869990
20
86.037346
30
0.0
10
77.463888
20
87.473375
30
0.0
10
77.839227
20
89.060283
30
0.0
10
77.970098
20
90.764078
30
0.0
10
77.839239
20
92.467791
30
0.0
10
77.463928
20
94.054661
30
0.0
10
76.870064
20
95.490685
30
0.0
10
76.083548
20
96.741862
30
0.0
10
75.130278
20
97.774188
30
0.0
10
74.036154
20
98.553662
30
0.0
10
72.827075
20
99.046282
30
0.0
10
71.528940
20
99.218044
30
0.0
10
70.230805
20
99.046282
30
0.0
10
69.021726
20
98.553662
30
0.0
10
67.927602
20
97.774188
30
0.0
10
66.974332
20
96.741862
30
0.0
10
66.187816
20
95.490685
30
0.0
10
65.593952
20
94.054661
30
0.0
10
65.218641
20
92.467791
30
0.0
10
65.087782
20
90.764078
30
0.0
10
65.218653
20
89.060283
30
0.0
10
65.593992
20
87.473375
30
0.0
10
66.187890
20
86.037346
30
0.0
10
66.974438
20
84.786188
30
0.0
10
67.927726
20
83.753893
30
0.0
10
69.021845
20
82.974453
30
0.0
10
70.230886
20
82.481862
30
0.0
10
71.528940
20
82.310111
30
0.0
10
71.528940
20
82.310111
30
0.0
62
0
0
LWPOLYLINE
100
AcDbPolyline
8
Layer_1
90
34
70
0
10
100.526144
20
82.424976
30
0.0
10
101.822921
20
82.607012
30
0.0
10
103.028106
20
83.109162
30
0.0
10
104.116067
20
83.897233
30
0.0
10
105.061173
20
84.937036
30
0.0
10
105.837793
20
86.194379
30
0.0
10
106.420294
20
87.635071
30
0.0
10
106.783045
20
89.224923
30
0.0
10
106.900416
20
90.929742
30
0.0
10
106.756056
20
92.632405
30
0.0
10
106.368153
20
94.216264
30
0.0
10
105.762883
20
95.647524
30
0.0
10
104.966417
20
96.892392
30
0.0
10
104.004931
20
97.917074
30
0.0
10
102.904599
20
98.687775
30
0.0
10
101.691593
20
99.170703
30
0.0
10
100.392089
20
99.332062
30
0.0
10
99.095406
20
99.150014
30
0.0
10
97.890295
20
98.647836
30
0.0
10
96.802394
20
97.859730
30
0.0
10
95.857342
20
96.819896
30
0.0
10
95.080777
20
95.562535
30
0.0
10
94.498336
20
94.121848
30
0.0
10
94.135659
20
92.532034
30
0.0
10
94.018382
20
90.827296
30
0.0
10
94.162730
20
89.124725
30
0.0
10
94.550596
20
87.540932
30
0.0
10
95.155811
20
86.109712
30
0.0
10
95.952204
20
84.864857
30
0.0
10
96.913605
20
83.840162
30
0.0
10
98.013842
20
83.069421
30
0.0
10
99.226745
20
82.586428
30
0.0
10
100.526144
20
82.424976
30
0.0
10
100.526144
20
82.424976
30
0.0
  0
ENDSEC
  0
SECTION
  2
OBJECTS
  0
DICTIONARY
  5
C
330
0
100
AcDbDictionary
  3
ACAD_GROUP
350
D
  3
ACAD_MLINESTYLE
350
17
  0
DICTIONARY
  5
D
330
C
100
AcDbDictionary
  0
DICTIONARY
  5
1A
330
C
100
AcDbDictionary
  0
DICTIONARY
  5
17
330
C
100
AcDbDictionary
  3
STANDARD
350
18
  0
DICTIONARY
  5
19
330
C
100
AcDbDictionary
  0
ENDSEC
  0
EOF
